<?xml version="1.0" encoding="UTF-8"?>
<svg id="Layer_2" data-name="Layer 2" xmlns="http://www.w3.org/2000/svg" viewBox="0 0 666.86 515.29">
  <defs>
    <style>
      .cls-1 {
        fill: #181818;
      }

      .cls-2 {
        fill: #616161;
      }
    </style>
  </defs>
  <polygon class="cls-2" points="451.44 371.86 451.44 180.15 225.72 84.29 0 180.15 0 371.86 225.72 467.71 451.44 371.86"/>
  <polygon class="cls-1" points="441.03 367.43 441.03 184.57 225.72 93.14 10.42 184.57 10.42 367.43 225.72 458.86 441.03 367.43"/>
  <g>
    <polygon class="cls-2" points="216.87 112.88 216.87 438.5 215.4 439.13 28.11 359.6 28.11 304.26 90.05 277.97 90.05 334.26 154.94 361.81 154.94 197.81 28.11 251.65 28.11 200.54 154.94 146.7 154.94 139.19 216.87 112.88"/>
    <path class="cls-2" d="M296.51,146.7v-7.51l-61.94-26.31V438.5l1.47,.63,187.29-79.53V200.54l-126.82-53.84Zm64.89,187.56l-64.89,27.55V197.81l64.89,27.55v108.9Z"/>
  </g>
</svg>